<svg xmlns="http://www.w3.org/2000/svg" width="950" height="360" viewBox="0 0 950 360"><defs><filter id="glow"><feGaussianBlur stdDeviation="2" result="b"/><feMerge><feMergeNode in="b"/><feMergeNode in="SourceGraphic"/></feMerge></filter><style>@keyframes dash{to{stroke-dashoffset:-80}}@keyframes pulse{0%,100%{opacity:.25;r:3}50%{opacity:1;r:6}}@keyframes travel{0%{offset-distance:0%;opacity:0}15%{opacity:1}85%{opacity:1}100%{offset-distance:100%;opacity:0}}@keyframes focus{0%,100%{opacity:.65}50%{opacity:1}}@keyframes float{0%,100%{transform:translateY(0)}50%{transform:translateY(-5px)}}.wire{stroke-dasharray:8 12;animation:dash 2s linear infinite}.node{animation:pulse 2s ease-in-out infinite}.n2{animation-delay:.5s}.n3{animation-delay:1s}.n4{animation-delay:1.5s}.label{animation:focus 3s ease-in-out infinite}.l2{animation-delay:.75s}.l3{animation-delay:1.5s}.l4{animation-delay:2.25s}.dot{offset-path:path('M 150 105 L 475 105 L 800 105');animation:travel 3s linear infinite}.dot2{animation-delay:1s}.dot3{animation-delay:2s}</style></defs><rect width="950" height="360" rx="14" fill="#010601" stroke="#00ff41" stroke-width="2"/><g font-family="monospace" text-anchor="middle"><text x="475" y="48" fill="#55ff88" font-size="11">ENGINEERING NETWORK // ONLINE</text><g stroke="#00ff41" fill="none" opacity=".45"><path class="wire" d="M150 105H800"/><path class="wire" d="M150 105L260 180L150 255"/><path class="wire" d="M800 105L690 180L800 255"/><path class="wire" d="M260 180H690"/><path class="wire" d="M150 255H800"/></g><g fill="#00ff41"><circle cx="150" cy="105" r="4" class="node"/><circle cx="800" cy="105" r="4" class="node n2"/><circle cx="260" cy="180" r="4" class="node n3"/><circle cx="690" cy="180" r="4" class="node n4"/><circle cx="150" cy="255" r="4" class="node"/><circle cx="800" cy="255" r="4" class="node n2"/></g><g fill="#00ff41" font-size="24" font-weight="700" filter="url(#glow)"><text x="475" y="112" class="label">KEEP LEARNING.</text><text x="475" y="187" class="label l2">KEEP BUILDING.</text><text x="475" y="262" class="label l3">KEEP TESTING.</text><text x="475" y="310" class="label l4">KEEP IMPROVING.</text></g><circle class="dot" cx="0" cy="0" r="3" fill="#55ff88" filter="url(#glow)"/><circle class="dot dot2" cx="0" cy="0" r="3" fill="#55ff88" filter="url(#glow)"/><circle class="dot dot3" cx="0" cy="0" r="3" fill="#55ff88" filter="url(#glow)"/><text x="475" y="342" fill="#55ff88" font-size="10">BUILD → TEST → DEBUG → IMPROVE → SHIP</text></g></svg>