<svg xmlns="http://www.w3.org/2000/svg" width="950" height="520" viewBox="0 0 950 520"><defs><filter id="g"><feGaussianBlur stdDeviation="3" result="b"/><feMerge><feMergeNode in="b"/><feMergeNode in="SourceGraphic"/></feMerge></filter><pattern id="p" width="25" height="25" patternUnits="userSpaceOnUse"><path d="M25 0H0V25" fill="none" stroke="#00ff41" opacity=".08"/></pattern></defs><rect width="950" height="520" rx="14" fill="#010601" stroke="#00ff41" stroke-width="2"/><rect width="950" height="520" fill="url(#p)"/><text x="30" y="61" fill="#55ff88" opacity=".7" font-family="monospace" font-size="11">root@rohithkp:~$ projects --monitor</text><circle cx="875" cy="31" r="6" fill="#00ff41" filter="url(#g)"><animate attributeName="opacity" values="1;.15;1" dur=".8s" repeatCount="indefinite"/></circle><text x="890" y="36" fill="#00ff41" font-family="monospace" font-size="10">ONLINE</text><g fill="#020b05" stroke="#00ff41"><rect x="25" y="85" width="440" height="165" rx="9"/><rect x="485" y="85" width="440" height="165" rx="9"/><rect x="25" y="270" width="440" height="165" rx="9"/><rect x="485" y="270" width="440" height="165" rx="9"/></g><g font-family="monospace"><text x="45" y="115" fill="#00ff41" font-size="16" font-weight="700">[01] ALEMS</text><text x="45" y="140" fill="#7aff9a" font-size="12">Angular · Flask · Python · MySQL</text><text x="45" y="163" fill="#b5ffc8" font-size="12">ACADEMIC &amp; EXAMINATION MANAGEMENT</text><text x="45" y="195" fill="#55ff88" font-size="11">STATUS :: ACTIVE</text><rect x="45" y="210" width="300" height="8" rx="4" fill="#00ff41" filter="url(#g)"><animate attributeName="width" values="180;300;220;300" dur="2.5s" repeatCount="indefinite"/></rect><text x="505" y="115" fill="#00ff41" font-size="16" font-weight="700">[02] COLD STORAGE MONITORING</text><text x="505" y="140" fill="#7aff9a" font-size="12">ESP32 · Sensors · Firebase</text><text x="505" y="163" fill="#b5ffc8" font-size="12">IoT MONITORING &amp; AUTOMATION</text><text x="505" y="195" fill="#55ff88" font-size="11">STATUS :: ACTIVE</text><rect x="505" y="210" width="280" height="8" rx="4" fill="#00ff41" filter="url(#g)"><animate attributeName="width" values="170;280;215;280" dur="2.5s" repeatCount="indefinite"/></rect><text x="45" y="300" fill="#00ff41" font-size="16" font-weight="700">[03] INVITATION WEBSITE PLATFORM</text><text x="45" y="325" fill="#7aff9a" font-size="12">HTML · CSS · JavaScript</text><text x="45" y="348" fill="#b5ffc8" font-size="12">CUSTOM EVENT WEBSITES</text><text x="45" y="380" fill="#55ff88" font-size="11">STATUS :: BUILDING</text><rect x="45" y="395" width="260" height="8" rx="4" fill="#00ff41" filter="url(#g)"><animate attributeName="width" values="130;260;200;260" dur="2.5s" repeatCount="indefinite"/></rect><text x="505" y="300" fill="#00ff41" font-size="16" font-weight="700">[04] PERSONAL PORTFOLIO</text><text x="505" y="325" fill="#7aff9a" font-size="12">HTML · CSS · JavaScript</text><text x="505" y="348" fill="#b5ffc8" font-size="12">ANIMATED DEVELOPER PORTFOLIO</text><text x="505" y="380" fill="#55ff88" font-size="11">STATUS :: ACTIVE</text><rect x="505" y="395" width="290" height="8" rx="4" fill="#00ff41" filter="url(#g)"><animate attributeName="width" values="180;290;230;290" dur="2.5s" repeatCount="indefinite"/></rect></g><line x1="0" y1="80" x2="950" y2="80" stroke="#00ff41" opacity=".5"><animate attributeName="y1" values="80;440;80" dur="4s" repeatCount="indefinite"/><animate attributeName="y2" values="80;440;80" dur="4s" repeatCount="indefinite"/></line><text x="30" y="490" fill="#55ff88" opacity=".7" font-family="monospace" font-size="11">DATABASE :: 04 PROJECTS</text><text x="405" y="490" fill="#00ff41" font-family="monospace" font-size="11">SYSTEM ONLINE</text></svg>
