<svg xmlns="http://www.w3.org/2000/svg" width="930" height="177" viewBox="0 0 930 177"><defs><filter id="glow" x="-20%" y="-50%" width="140%" height="200%"><feGaussianBlur stdDeviation="3" result="blur"/><feMerge><feMergeNode in="blur"/><feMergeNode in="SourceGraphic"/></feMerge></filter></defs><rect width="930" height="177" fill="transparent"/><g fill="#00ff41" filter="url(#glow)"><rect x="10" y="18" width="12" height="12"/><rect x="27" y="18" width="12" height="12"/><rect x="44" y="18" width="12" height="12"/><rect x="61" y="18" width="12" height="12"/><rect x="10" y="35" width="12" height="12"/><rect x="78" y="35" width="12" height="12"/><rect x="10" y="52" width="12" height="12"/><rect x="78" y="52" width="12" height="12"/><rect x="10" y="69" width="12" height="12"/><rect x="27" y="69" width="12" height="12"/><rect x="44" y="69" width="12" height="12"/><rect x="61" y="69" width="12" height="12"/><rect x="10" y="86" width="12" height="12"/><rect x="44" y="86" width="12" height="12"/><rect x="10" y="103" width="12" height="12"/><rect x="61" y="103" width="12" height="12"/><rect x="10" y="120" width="12" height="12"/><rect x="78" y="120" width="12" height="12"/><rect x="134" y="18" width="12" height="12"/><rect x="151" y="18" width="12" height="12"/><rect x="168" y="18" width="12" height="12"/><rect x="117" y="35" width="12" height="12"/><rect x="185" y="35" width="12" height="12"/><rect x="117" y="52" width="12" height="12"/><rect x="185" y="52" width="12" height="12"/><rect x="117" y="69" width="12" height="12"/><rect x="185" y="69" width="12" height="12"/><rect x="117" y="86" width="12" height="12"/><rect x="185" y="86" width="12" height="12"/><rect x="117" y="103" width="12" height="12"/><rect x="185" y="103" width="12" height="12"/><rect x="134" y="120" width="12" height="12"/><rect x="151" y="120" width="12" height="12"/><rect x="168" y="120" width="12" height="12"/><rect x="224" y="18" width="12" height="12"/><rect x="292" y="18" width="12" height="12"/><rect x="224" y="35" width="12" height="12"/><rect x="292" y="35" width="12" height="12"/><rect x="224" y="52" width="12" height="12"/><rect x="292" y="52" width="12" height="12"/><rect x="224" y="69" width="12" height="12"/><rect x="241" y="69" width="12" height="12"/><rect x="258" y="69" width="12" height="12"/><rect x="275" y="69" width="12" height="12"/><rect x="292" y="69" width="12" height="12"/><rect x="224" y="86" width="12" height="12"/><rect x="292" y="86" width="12" height="12"/><rect x="224" y="103" width="12" height="12"/><rect x="292" y="103" width="12" height="12"/><rect x="224" y="120" width="12" height="12"/><rect x="292" y="120" width="12" height="12"/><rect x="331" y="18" width="12" height="12"/><rect x="348" y="18" width="12" height="12"/><rect x="365" y="18" width="12" height="12"/><rect x="382" y="18" width="12" height="12"/><rect x="399" y="18" width="12" height="12"/><rect x="365" y="35" width="12" height="12"/><rect x="365" y="52" width="12" height="12"/><rect x="365" y="69" width="12" height="12"/><rect x="365" y="86" width="12" height="12"/><rect x="365" y="103" width="12" height="12"/><rect x="331" y="120" width="12" height="12"/><rect x="348" y="120" width="12" height="12"/><rect x="365" y="120" width="12" height="12"/><rect x="382" y="120" width="12" height="12"/><rect x="399" y="120" width="12" height="12"/><rect x="438" y="18" width="12" height="12"/><rect x="455" y="18" width="12" height="12"/><rect x="472" y="18" width="12" height="12"/><rect x="489" y="18" width="12" height="12"/><rect x="506" y="18" width="12" height="12"/><rect x="472" y="35" width="12" height="12"/><rect x="472" y="52" width="12" height="12"/><rect x="472" y="69" width="12" height="12"/><rect x="472" y="86" width="12" height="12"/><rect x="472" y="103" width="12" height="12"/><rect x="472" y="120" width="12" height="12"/><rect x="545" y="18" width="12" height="12"/><rect x="613" y="18" width="12" height="12"/><rect x="545" y="35" width="12" height="12"/><rect x="613" y="35" width="12" height="12"/><rect x="545" y="52" width="12" height="12"/><rect x="613" y="52" width="12" height="12"/><rect x="545" y="69" width="12" height="12"/><rect x="562" y="69" width="12" height="12"/><rect x="579" y="69" width="12" height="12"/><rect x="596" y="69" width="12" height="12"/><rect x="613" y="69" width="12" height="12"/><rect x="545" y="86" width="12" height="12"/><rect x="613" y="86" width="12" height="12"/><rect x="545" y="103" width="12" height="12"/><rect x="613" y="103" width="12" height="12"/><rect x="545" y="120" width="12" height="12"/><rect x="613" y="120" width="12" height="12"/><rect x="674" y="18" width="12" height="12"/><rect x="742" y="18" width="12" height="12"/><rect x="674" y="35" width="12" height="12"/><rect x="725" y="35" width="12" height="12"/><rect x="674" y="52" width="12" height="12"/><rect x="708" y="52" width="12" height="12"/><rect x="674" y="69" width="12" height="12"/><rect x="691" y="69" width="12" height="12"/><rect x="674" y="86" width="12" height="12"/><rect x="708" y="86" width="12" height="12"/><rect x="674" y="103" width="12" height="12"/><rect x="725" y="103" width="12" height="12"/><rect x="674" y="120" width="12" height="12"/><rect x="742" y="120" width="12" height="12"/><rect x="803" y="18" width="12" height="12"/><rect x="820" y="18" width="12" height="12"/><rect x="837" y="18" width="12" height="12"/><rect x="854" y="18" width="12" height="12"/><rect x="803" y="35" width="12" height="12"/><rect x="871" y="35" width="12" height="12"/><rect x="803" y="52" width="12" height="12"/><rect x="871" y="52" width="12" height="12"/><rect x="803" y="69" width="12" height="12"/><rect x="820" y="69" width="12" height="12"/><rect x="837" y="69" width="12" height="12"/><rect x="854" y="69" width="12" height="12"/><rect x="803" y="86" width="12" height="12"/><rect x="803" y="103" width="12" height="12"/><rect x="803" y="120" width="12" height="12"/></g><text x="465" y="155" text-anchor="middle" font-family="Courier New,monospace" font-size="11" fill="#55ff88">root@rohithkp:~$ whoami</text></svg>
